<?xml version="1.0" standalone="no"?>
<!DOCTYPE svg PUBLIC "-//W3C//DTD SVG 20010904//EN"
 "http://www.w3.org/TR/2001/REC-SVG-20010904/DTD/svg10.dtd">
<svg version="1.0" xmlns="http://www.w3.org/2000/svg"
 width="512.000000pt" height="512.000000pt" viewBox="0 0 512.000000 512.000000"
 preserveAspectRatio="xMidYMid meet">

<g transform="translate(0.000000,512.000000) scale(0.100000,-0.100000)"
fill="#000000" stroke="none">
<path d="M2360 5114 c-313 -30 -624 -107 -898 -225 -546 -234 -997 -685 -1231
-1231 -96 -224 -171 -491 -208 -743 -21 -147 -24 -522 -5 -665 18 -137 58
-322 92 -432 l30 -96 68 23 c78 27 76 21 38 149 -46 155 -70 297 -90 524 l-6
62 114 0 114 0 7 -77 c11 -132 45 -323 80 -443 140 -485 456 -922 868 -1200
36 -25 67 -48 67 -51 0 -4 -25 -50 -56 -103 l-56 -96 -82 56 c-139 97 -260
200 -378 323 -185 191 -330 399 -441 634 -58 120 -51 116 -141 77 -56 -25 -57
-18 24 -180 397 -798 1181 -1332 2070 -1410 436 -38 890 41 1280 221 124 58
280 142 280 151 0 4 -268 472 -596 1040 -328 568 -598 1038 -601 1045 -4 10
41 13 221 13 l226 0 32 -29 33 -29 5 -153 c6 -166 13 -190 67 -240 46 -43 93
-62 153 -62 69 0 116 20 163 68 52 54 67 112 67 263 0 123 0 124 29 153 24 23
38 29 73 29 24 0 50 -6 58 -13 44 -36 45 -38 50 -331 5 -264 6 -283 27 -321
72 -134 232 -187 366 -122 60 30 95 65 130 131 21 39 22 57 27 324 l5 284 28
24 28 24 315 0 314 0 0 93 c0 270 -60 605 -155 863 -55 151 -184 406 -270 534
-73 110 -205 280 -215 280 -3 0 -29 -22 -59 -48 l-54 -48 66 -82 c181 -223
324 -489 416 -767 60 -184 91 -344 116 -607 l5 -58 -114 0 -114 0 -7 78 c-11
131 -45 322 -80 442 -140 486 -456 922 -868 1200 -36 25 -67 48 -67 52 0 5 96
175 107 187 11 14 249 -161 365 -268 42 -39 78 -71 81 -71 2 0 25 24 51 54
l46 54 -68 66 c-358 345 -857 583 -1387 662 -97 14 -465 26 -555 18z m395
-154 c219 -19 397 -57 606 -129 139 -48 329 -135 329 -151 0 -15 -102 -190
-111 -190 -3 0 -42 17 -85 39 -563 275 -1281 279 -1843 11 -57 -28 -107 -50
-110 -50 -9 0 -121 193 -121 207 0 5 46 29 103 53 406 172 830 244 1232 210z
m-1414 -441 c32 -56 59 -105 59 -108 0 -3 -31 -26 -67 -51 -412 -278 -728
-715 -868 -1200 -35 -120 -69 -311 -80 -442 l-7 -78 -113 0 -114 0 5 68 c36
448 167 867 372 1192 117 184 322 414 484 543 84 67 261 187 266 182 2 -2 30
-50 63 -106z m1521 46 c193 -29 367 -82 541 -163 73 -34 97 -50 94 -61 -2 -9
-75 -137 -160 -285 l-156 -269 62 -37 c34 -20 65 -35 68 -34 3 2 77 127 164
279 88 151 163 275 168 275 12 0 117 -73 189 -132 225 -183 410 -413 538 -668
127 -253 178 -438 215 -781 l5 -46 -62 -7 c-34 -4 -76 -13 -93 -20 -46 -19
-103 -73 -128 -120 -21 -39 -22 -57 -27 -323 l-5 -282 -29 -30 c-60 -62 -149
-58 -193 8 -22 33 -23 40 -23 286 0 192 -3 263 -15 301 -42 140 -211 217 -346
157 -47 -21 -112 -86 -131 -131 -7 -15 -14 -93 -17 -173 -7 -169 -15 -189 -81
-189 -59 0 -64 14 -70 179 -6 137 -8 149 -35 200 -32 57 -68 90 -131 118 -32
14 -78 18 -271 21 -128 2 -233 6 -233 9 0 2 119 211 265 463 146 253 265 463
265 468 0 8 -106 72 -120 72 -4 0 -129 -209 -276 -465 -148 -256 -271 -465
-274 -465 -7 0 -940 1616 -940 1628 0 10 147 81 245 118 105 39 318 91 425
103 52 6 111 13 130 15 67 8 345 -4 442 -19z m-909 -1104 c257 -445 467 -812
467 -815 0 -3 -133 -6 -295 -6 l-295 0 0 -80 0 -80 296 0 c233 0 295 -3 291
-12 -5 -15 -926 -1611 -933 -1617 -14 -15 -201 127 -326 248 -280 269 -476
607 -567 979 -26 104 -36 171 -56 359 l-5 43 573 2 572 3 0 75 0 75 -572 3
-573 2 5 43 c20 188 30 255 56 359 101 414 340 798 669 1073 88 73 201 154
215 155 6 0 221 -364 478 -809z m1080 -1871 c257 -445 467 -813 467 -818 0
-10 -147 -81 -245 -118 -98 -36 -313 -90 -425 -105 -123 -17 -418 -17 -540 0
-116 16 -299 60 -400 96 -99 36 -270 116 -270 127 0 12 933 1628 940 1628 3 0
216 -364 473 -810z m-1381 -1010 c554 -265 1260 -264 1820 2 91 43 111 49 119
37 45 -69 100 -173 96 -183 -7 -18 -226 -113 -372 -161 -257 -85 -477 -119
-760 -119 -218 0 -361 16 -550 61 -169 40 -406 126 -547 199 l-37 19 56 98
c31 53 60 97 64 97 3 0 53 -22 111 -50z"/>
<path d="M2245 4411 c-144 -37 -247 -165 -249 -308 0 -42 7 -88 17 -120 21
-60 92 -145 145 -172 34 -17 35 -20 38 -83 7 -136 85 -257 208 -321 57 -30 67
-32 166 -32 96 0 110 2 163 29 278 141 282 532 5 670 -39 20 -76 36 -83 36 -7
0 -15 19 -18 45 -19 138 -151 253 -299 261 -35 2 -76 0 -93 -5z m173 -180 c45
-31 89 -121 60 -121 -38 0 -137 -61 -185 -114 l-52 -56 -35 30 c-42 37 -60 87
-53 146 5 52 46 110 91 130 46 21 135 13 174 -15z m252 -294 c24 -12 57 -40
74 -60 37 -46 31 -61 -40 -97 -41 -21 -62 -25 -134 -25 -72 0 -93 4 -134 25
-71 36 -77 51 -40 97 44 54 105 83 174 83 40 0 70 -7 100 -23z"/>
<path d="M3649 3768 c-88 -31 -171 -96 -220 -170 -64 -100 -62 -163 7 -253
l35 -47 -65 -102 c-36 -57 -66 -108 -66 -113 0 -10 529 -247 536 -241 2 2 18
59 36 126 l33 122 36 0 c53 0 132 27 157 52 11 13 31 46 44 73 30 67 32 215 4
290 -45 119 -137 214 -248 257 -83 32 -207 34 -289 6z m221 -144 c103 -30 190
-149 190 -258 0 -50 -19 -105 -41 -117 -18 -9 -94 -3 -171 14 -6 1 -24 -45
-40 -103 -16 -57 -31 -106 -32 -108 -5 -5 -216 89 -216 96 0 3 25 45 55 93 30
48 55 91 55 95 0 5 -16 20 -35 33 -19 13 -51 41 -70 62 -34 37 -35 41 -21 67
25 48 92 104 148 123 66 23 109 24 178 3z"/>
<path d="M1009 3387 c-100 -28 -175 -92 -221 -187 -17 -34 -22 -64 -22 -126
-1 -73 2 -87 34 -150 120 -234 446 -235 576 -2 26 48 29 62 29 148 0 84 -3
101 -27 146 -70 133 -234 209 -369 171z"/>
<path d="M1115 2320 c-268 -85 -379 -406 -222 -642 53 -80 148 -150 223 -164
46 -8 105 11 151 51 23 19 45 35 50 35 4 0 55 -29 113 -65 58 -35 108 -61 112
-57 8 9 229 534 226 537 -2 2 -59 18 -128 37 l-125 33 -6 60 c-10 103 -44 146
-137 175 -81 25 -178 25 -257 0z m210 -144 c34 -14 35 -17 35 -68 0 -29 -5
-71 -10 -93 -6 -25 -5 -42 1 -46 5 -3 54 -16 109 -29 55 -13 100 -26 100 -29
0 -20 -91 -216 -99 -214 -9 3 -114 65 -167 99 -19 13 -23 10 -59 -41 -21 -31
-51 -65 -67 -76 l-28 -21 -35 22 c-77 48 -135 148 -135 235 0 178 200 325 355
261z"/>
<path d="M2450 1661 c-97 -32 -187 -116 -216 -204 -54 -159 14 -325 163 -399
58 -28 77 -33 143 -33 162 0 289 106 319 268 18 100 -10 196 -80 272 -64 70
-127 98 -224 101 -44 2 -91 0 -105 -5z"/>
</g>
</svg>
